<?xml version="1.0" encoding="UTF-8" standalone="no"?> <svg width="45" height="45" viewBox="0 0 64 64" stroke="#F0F8FF" fill="none" xmlns="http://www.w3.org/2000/svg">
<path d="M60 10.45H49.25V4.54999C49.25 4.28477 49.1446 4.03042 48.9571 3.84288C48.7696 3.65534 48.5152 3.54999 48.25 3.54999H15.75C15.4848 3.54999 15.2304 3.65534 15.0429 3.84288C14.8554 4.03042 14.75 4.28477 14.75 4.54999V10.45H4C3.73478 10.45 3.48043 10.5553 3.29289 10.7429C3.10536 10.9304 3 11.1848 3 11.45V59.45C3 59.7152 3.10536 59.9696 3.29289 60.1571C3.48043 60.3446 3.73478 60.45 4 60.45H60C60.2652 60.45 60.5196 60.3446 60.7071 60.1571C60.8946 59.9696 61 59.7152 61 59.45V11.45C61 11.3187 60.9741 11.1886 60.9239 11.0673C60.8736 10.946 60.8 10.8357 60.7071 10.7429C60.6142 10.65 60.504 10.5764 60.3827 10.5261C60.2614 10.4759 60.1313 10.45 60 10.45ZM16.75 5.54999H47.25V17.34H16.75V5.54999ZM24 58.45V43.88H31V58.45H24ZM33 58.45V43.88H40V58.45H33ZM42 58.45V42.88C42 42.6148 41.8946 42.3604 41.7071 42.1729C41.5196 41.9853 41.2652 41.88 41 41.88H23C22.7348 41.88 22.4804 41.9853 22.2929 42.1729C22.1054 42.3604 22 42.6148 22 42.88V58.45H11.14V27.16H52.86V58.45H42ZM59 58.45H54.86V26.16C54.86 25.8948 54.7546 25.6404 54.5671 25.4529C54.3796 25.2653 54.1252 25.16 53.86 25.16H10.14C9.87478 25.16 9.62043 25.2653 9.43289 25.4529C9.24536 25.6404 9.14 25.8948 9.14 26.16V58.45H5V12.45H14.75V18.34C14.75 18.6052 14.8554 18.8596 15.0429 19.0471C15.2304 19.2346 15.4848 19.34 15.75 19.34H48.25C48.5152 19.34 48.7696 19.2346 48.9571 19.0471C49.1446 18.8596 49.25 18.6052 49.25 18.34V12.45H59V58.45Z" fill="black"/>
<path d="M27.2201 10.45H23.5201C23.2549 10.45 23.0005 10.5553 22.813 10.7429C22.6254 10.9304 22.5201 11.1848 22.5201 11.45V12.66C22.5201 12.9252 22.6254 13.1796 22.813 13.3671C23.0005 13.5546 23.2549 13.66 23.5201 13.66C23.7853 13.66 24.0396 13.5546 24.2272 13.3671C24.4147 13.1796 24.5201 12.9252 24.5201 12.66V12.45H26.0001C25.8183 12.9059 25.5157 13.3036 25.1248 13.6004C24.7339 13.8972 24.2695 14.0818 23.7815 14.1344C23.2935 14.187 22.8005 14.1056 22.3553 13.899C21.9101 13.6923 21.5297 13.3683 21.2549 12.9616C20.9801 12.5549 20.8214 12.081 20.7958 11.5909C20.7701 11.1008 20.8786 10.6129 21.1095 10.1798C21.3404 9.74673 21.6849 9.38475 22.1062 9.13282C22.5274 8.88089 23.0093 8.74854 23.5001 8.74999C23.959 8.74616 24.4109 8.86344 24.8101 9.08999C25.0408 9.2226 25.3148 9.25811 25.5717 9.18872C25.8286 9.11933 26.0475 8.95073 26.1801 8.71999C26.3127 8.48925 26.3482 8.21528 26.2788 7.95836C26.2094 7.70143 26.0408 7.4826 25.8101 7.34999C25.113 6.95144 24.323 6.74443 23.5201 6.74999C22.5905 6.74999 21.6818 7.02564 20.9089 7.54208C20.136 8.05852 19.5336 8.79256 19.1778 9.65138C18.8221 10.5102 18.729 11.4552 18.9104 12.3669C19.0917 13.2786 19.5394 14.1161 20.1967 14.7734C20.854 15.4307 21.6914 15.8783 22.6031 16.0597C23.5149 16.241 24.4599 16.148 25.3187 15.7922C26.1775 15.4365 26.9115 14.8341 27.428 14.0612C27.9444 13.2883 28.2201 12.3796 28.2201 11.45C28.2201 11.1848 28.1147 10.9304 27.9272 10.7429C27.7396 10.5553 27.4853 10.45 27.2201 10.45Z" fill="black"/>
<path d="M33.91 7.09998L31.84 9.55998L29.77 7.09998C29.5962 6.89985 29.3501 6.7769 29.0857 6.75815C28.8213 6.7394 28.5603 6.82638 28.36 6.99998C28.2471 7.094 28.1563 7.21174 28.0941 7.34482C28.0319 7.47791 27.9998 7.62307 28 7.76998C28.0023 8.00488 28.0873 8.23146 28.24 8.40998L30.84 11.49V15.16C30.84 15.4252 30.9454 15.6795 31.1329 15.8671C31.3204 16.0546 31.5748 16.16 31.84 16.16C32.1052 16.16 32.3596 16.0546 32.5471 15.8671C32.7346 15.6795 32.84 15.4252 32.84 15.16V11.47L35.44 8.38998C35.605 8.18833 35.6849 7.93021 35.6625 7.67059C35.64 7.41098 35.5172 7.17036 35.32 6.99998C35.1197 6.82638 34.8587 6.7394 34.5943 6.75815C34.3299 6.7769 34.0838 6.89985 33.91 7.09998Z" fill="black"/>
<path d="M44.61 6.83999C44.4351 6.76123 44.2412 6.73443 44.0515 6.7628C43.8618 6.79117 43.6842 6.8735 43.54 6.99999L40.72 9.28999L37.89 6.99999C37.7447 6.87874 37.5679 6.80121 37.3803 6.77643C37.1926 6.75165 37.0018 6.78063 36.83 6.85999C36.6564 6.94033 36.5095 7.06875 36.4067 7.23004C36.3039 7.39134 36.2495 7.57873 36.25 7.76999V15.16C36.25 15.4252 36.3554 15.6796 36.5429 15.8671C36.7304 16.0546 36.9848 16.16 37.25 16.16C37.5152 16.16 37.7696 16.0546 37.9571 15.8671C38.1446 15.6796 38.25 15.4252 38.25 15.16V9.85999L40.08 11.36C40.2589 11.5071 40.4834 11.5875 40.715 11.5875C40.9466 11.5875 41.1711 11.5071 41.35 11.36L43.18 9.85999V15.14C43.18 15.4052 43.2854 15.6596 43.4729 15.8471C43.6604 16.0346 43.9148 16.14 44.18 16.14C44.4452 16.14 44.6996 16.0346 44.8871 15.8471C45.0746 15.6596 45.18 15.4052 45.18 15.14V7.74999C45.1814 7.55981 45.1285 7.37318 45.0275 7.212C44.9265 7.05082 44.7817 6.92177 44.61 6.83999V6.83999Z" fill="black"/>
</svg>
