<?xml version="1.0" standalone="no"?>
<!DOCTYPE svg PUBLIC "-//W3C//DTD SVG 20010904//EN"
 "http://www.w3.org/TR/2001/REC-SVG-20010904/DTD/svg10.dtd">
<svg version="1.0" xmlns="http://www.w3.org/2000/svg"
 width="30pt" height="30pt" viewBox="0 0 1280.000000 1280.000000"
 preserveAspectRatio="xMidYMid meet">
<metadata>
Created by potrace 1.16, written by Peter Selinger 2001-2019
</metadata>
<g transform="translate(0.000000,1280.000000) scale(0.100000,-0.100000)"
fill="#8c44ff" stroke="none">
<path d="M9190 11933 c-309 -52 -566 -267 -670 -560 l-26 -73 -134 136 c-226
227 -339 305 -517 356 -113 33 -343 33 -456 0 -147 -42 -294 -131 -390 -236
-85 -91 -135 -181 -196 -349 -5 -15 -25 1 -106 90 -141 154 -188 197 -270 248
-148 92 -307 131 -498 123 -213 -11 -395 -92 -547 -247 -117 -119 -184 -237
-227 -401 -24 -91 -23 -300 1 -395 21 -81 80 -212 126 -282 18 -26 470 -486
1004 -1021 l971 -972 -1395 -1395 -1395 -1395 -980 979 c-539 538 -1000 992
-1025 1008 -74 50 -184 101 -267 125 -103 30 -332 33 -432 5 -157 -43 -259
-99 -372 -205 -259 -243 -339 -603 -209 -940 45 -116 114 -210 281 -378 l150
-150 -58 -18 c-208 -65 -390 -221 -489 -421 -66 -135 -87 -223 -87 -380 0
-149 20 -241 78 -362 54 -114 87 -156 272 -344 l173 -175 -57 -18 c-519 -163
-745 -787 -456 -1256 34 -54 104 -133 252 -282 l205 -208 -86 -87 c-180 -185
-252 -357 -250 -603 3 -376 258 -696 628 -787 105 -25 287 -23 392 5 151 40
268 109 398 234 l80 77 155 -155 c85 -86 181 -175 215 -199 362 -262 864 -203
1149 134 68 81 112 156 150 256 l31 84 135 -135 c224 -227 338 -305 516 -356
113 -33 343 -33 456 0 254 73 466 263 552 494 15 40 30 81 34 92 6 15 24 -3
104 -97 120 -142 197 -215 285 -266 189 -112 432 -148 642 -95 146 37 306 131
412 241 152 161 228 356 228 590 0 173 -49 333 -143 473 -20 30 -459 480 -976
1001 l-939 946 1394 1394 1394 1394 947 -946 c522 -521 969 -961 996 -978 72
-49 183 -98 272 -122 113 -30 307 -30 420 0 286 77 504 282 598 564 29 87 31
101 31 252 1 186 -10 239 -78 380 -54 113 -105 177 -270 336 l-130 125 70 23
c207 66 384 222 484 426 105 215 110 498 11 717 -50 113 -107 185 -283 364
l-168 170 57 18 c209 65 396 228 498 431 67 136 88 238 82 405 -5 150 -20 217
-72 327 -54 116 -104 178 -279 353 l-165 164 83 86 c171 176 242 331 253 555
15 295 -119 561 -363 724 -136 92 -281 133 -459 133 -229 -1 -413 -80 -591
-253 l-80 -79 -215 214 c-174 174 -229 222 -294 260 -84 49 -193 88 -289 105
-57 11 -224 13 -276 4z m231 -403 c33 -12 77 -31 97 -44 51 -33 1896 -1882
1933 -1937 16 -24 39 -75 50 -112 70 -228 -58 -466 -290 -537 -112 -35 -238
-19 -343 43 -24 14 -473 457 -999 984 -1047 1049 -987 982 -1011 1128 -18 108
19 243 92 335 106 134 309 194 471 140z m-1692 -118 c30 -9 78 -32 106 -51 28
-20 825 -812 1771 -1761 1596 -1600 1723 -1730 1753 -1791 84 -173 59 -352
-71 -494 -90 -99 -240 -151 -371 -128 -151 26 1 -117 -1925 1807 -1915 1913
-1797 1788 -1824 1934 -33 179 68 374 235 457 109 54 210 62 326 27z m3333
-162 c161 -50 272 -189 285 -356 10 -132 -43 -249 -171 -374 l-46 -45 -288
288 -287 288 80 77 c44 43 98 86 120 97 101 48 205 57 307 25z m-4986 -5 c28
-8 77 -32 110 -53 40 -27 850 -832 2525 -2513 2699 -2708 2513 -2512 2540
-2662 40 -218 -114 -443 -337 -493 -117 -26 -232 -3 -336 66 -25 17 -1157
1145 -2515 2508 -2366 2373 -2471 2480 -2503 2547 -61 127 -51 295 24 413 52
81 138 150 230 182 64 23 194 25 262 5z m1614 -4197 c-228 -227 -857 -854
-1397 -1393 l-983 -980 -287 288 -288 287 1395 1395 1395 1395 290 -290 290
-290 -415 -412z m-5535 193 c84 -40 -107 149 2891 -2866 1406 -1414 2120
-2139 2145 -2178 53 -81 76 -186 61 -279 -13 -84 -56 -178 -110 -239 -47 -53
-150 -110 -231 -129 -111 -26 -256 7 -349 78 -26 20 -922 917 -1992 1992
-3264 3283 -2962 2976 -2995 3050 -38 85 -47 220 -20 301 47 142 141 239 282
289 47 16 77 20 153 17 83 -3 104 -7 165 -36z m-250 -1616 c32 -9 81 -28 108
-43 37 -20 494 -474 1771 -1761 947 -953 1736 -1754 1754 -1779 136 -191 74
-477 -132 -609 -92 -59 -232 -81 -336 -53 -123 33 -60 -28 -1872 1798 -942
949 -1729 1747 -1750 1773 -70 93 -98 245 -68 361 61 228 301 371 525 313z
m-13 -1748 c71 -35 116 -77 1016 -974 903 -901 942 -941 973 -1008 60 -128 50
-296 -25 -413 -122 -192 -389 -258 -586 -145 -50 28 -1872 1840 -1921 1910
-114 163 -92 396 52 542 91 92 192 132 325 128 82 -3 99 -7 166 -40z m118
-1922 l285 -286 -76 -73 c-118 -114 -242 -160 -369 -138 -217 39 -363 219
-347 429 8 104 46 181 137 277 40 42 75 76 79 76 3 0 134 -128 291 -285z"/>
</g>
</svg>
